<svg width="13" height="10" viewBox="0 0 13 10" fill="none" xmlns="http://www.w3.org/2000/svg">
<path fill-rule="evenodd" clip-rule="evenodd" d="M8.42263 1.12846L11.9576 4.66446C12.1451 4.85198 12.2504 5.10629 12.2504 5.37146C12.2504 5.63662 12.1451 5.89093 11.9576 6.07846L8.42263 9.61346C8.23402 9.79561 7.98142 9.89641 7.71922 9.89413C7.45703 9.89185 7.20621 9.78668 7.02081 9.60127C6.8354 9.41586 6.73023 9.16505 6.72795 8.90286C6.72567 8.64066 6.82647 8.38806 7.00863 8.19946L8.78563 6.42146H1.76562C1.50041 6.42146 1.24605 6.3161 1.05852 6.12856C0.870982 5.94103 0.765625 5.68667 0.765625 5.42146C0.765625 5.15624 0.870982 4.90189 1.05852 4.71435C1.24605 4.52681 1.50041 4.42146 1.76562 4.42146H8.88663L7.00863 2.54146C6.83097 2.35201 6.73399 2.10087 6.73821 1.84119C6.74242 1.5815 6.84751 1.33365 7.03122 1.15007C7.21493 0.966483 7.46286 0.861576 7.72255 0.857543C7.98223 0.85351 8.2333 0.950667 8.42263 1.12846Z" fill="#1A47FF"/>
</svg>
